<svg width="48" height="48" viewBox="0 0 48 48" fill="none" xmlns="http://www.w3.org/2000/svg">
<g id="camera">
<circle id="Ellipse 3695" cx="24" cy="23.9112" r="23.6612" fill="white" stroke="black" stroke-width="0.5"/>
<g id="icon">
<g id="Icon">
<path d="M13.5074 20.3118C13.5074 19.9615 13.5074 19.7863 13.522 19.6388C13.663 18.2158 14.7887 17.0902 16.2116 16.9492C16.3591 16.9346 16.5437 16.9346 16.913 16.9346C17.0552 16.9346 17.1264 16.9346 17.1868 16.9309C17.958 16.8842 18.6333 16.3974 18.9215 15.6806C18.9441 15.6244 18.9652 15.5611 19.0074 15.4346C19.0496 15.308 19.0707 15.2447 19.0932 15.1886C19.3814 14.4717 20.0568 13.9849 20.828 13.9382C20.8884 13.9346 20.9551 13.9346 21.0885 13.9346H25.9262C26.0597 13.9346 26.1264 13.9346 26.1868 13.9382C26.958 13.9849 27.6333 14.4717 27.9215 15.1886C27.9441 15.2447 27.9652 15.308 28.0074 15.4346C28.0496 15.5611 28.0707 15.6244 28.0932 15.6806C28.3814 16.3974 29.0568 16.8842 29.828 16.9309C29.8884 16.9346 29.9595 16.9346 30.1018 16.9346C30.471 16.9346 30.6556 16.9346 30.8032 16.9492C32.2261 17.0902 33.3518 18.2158 33.4928 19.6388C33.5074 19.7863 33.5074 19.9615 33.5074 20.3118V28.1346C33.5074 29.8147 33.5074 30.6548 33.1804 31.2965C32.8928 31.861 32.4338 32.32 31.8694 32.6076C31.2276 32.9346 30.3875 32.9346 28.7074 32.9346H18.3074C16.6272 32.9346 15.7871 32.9346 15.1454 32.6076C14.5809 32.32 14.122 31.861 13.8344 31.2965C13.5074 30.6548 13.5074 29.8147 13.5074 28.1346V20.3118Z" fill="black"/>
<path d="M23.5074 28.4346C25.7165 28.4346 27.5074 26.6437 27.5074 24.4346C27.5074 22.2254 25.7165 20.4346 23.5074 20.4346C21.2982 20.4346 19.5074 22.2254 19.5074 24.4346C19.5074 26.6437 21.2982 28.4346 23.5074 28.4346Z" fill="black"/>
<path d="M13.5074 20.3118C13.5074 19.9615 13.5074 19.7863 13.522 19.6388C13.663 18.2158 14.7887 17.0902 16.2116 16.9492C16.3591 16.9346 16.5437 16.9346 16.913 16.9346C17.0552 16.9346 17.1264 16.9346 17.1868 16.9309C17.958 16.8842 18.6333 16.3974 18.9215 15.6806C18.9441 15.6244 18.9652 15.5611 19.0074 15.4346C19.0496 15.308 19.0707 15.2447 19.0932 15.1886C19.3814 14.4717 20.0568 13.9849 20.828 13.9382C20.8884 13.9346 20.9551 13.9346 21.0885 13.9346H25.9262C26.0597 13.9346 26.1264 13.9346 26.1868 13.9382C26.958 13.9849 27.6333 14.4717 27.9215 15.1886C27.9441 15.2447 27.9652 15.308 28.0074 15.4346C28.0496 15.5611 28.0707 15.6244 28.0932 15.6806C28.3814 16.3974 29.0568 16.8842 29.828 16.9309C29.8884 16.9346 29.9595 16.9346 30.1018 16.9346C30.471 16.9346 30.6556 16.9346 30.8032 16.9492C32.2261 17.0902 33.3518 18.2158 33.4928 19.6388C33.5074 19.7863 33.5074 19.9615 33.5074 20.3118V28.1346C33.5074 29.8147 33.5074 30.6548 33.1804 31.2965C32.8928 31.861 32.4338 32.32 31.8694 32.6076C31.2276 32.9346 30.3875 32.9346 28.7074 32.9346H18.3074C16.6272 32.9346 15.7871 32.9346 15.1454 32.6076C14.5809 32.32 14.122 31.861 13.8344 31.2965C13.5074 30.6548 13.5074 29.8147 13.5074 28.1346V20.3118Z" stroke="black" stroke-linecap="round" stroke-linejoin="round"/>
<path d="M23.5074 28.4346C25.7165 28.4346 27.5074 26.6437 27.5074 24.4346C27.5074 22.2254 25.7165 20.4346 23.5074 20.4346C21.2982 20.4346 19.5074 22.2254 19.5074 24.4346C19.5074 26.6437 21.2982 28.4346 23.5074 28.4346Z" stroke="black" stroke-linecap="round" stroke-linejoin="round"/>
</g>
<path id="Icon_2" d="M23.5074 28.4346C25.7165 28.4346 27.5074 26.6437 27.5074 24.4346C27.5074 22.2254 25.7165 20.4346 23.5074 20.4346C21.2982 20.4346 19.5074 22.2254 19.5074 24.4346C19.5074 26.6437 21.2982 28.4346 23.5074 28.4346Z" fill="white"/>
</g>
</g>
</svg>
