<svg width="22" height="23" viewBox="0 0 22 23" fill="none" xmlns="http://www.w3.org/2000/svg">
<g id="icon">
<path id="Vector" fill-rule="evenodd" clip-rule="evenodd" d="M10.9999 2.5C10.0353 2.5 9.16136 2.89354 8.52876 3.52929C7.89525 4.16503 7.5038 5.04436 7.5038 6.01479C7.5038 6.98523 7.89525 7.86455 8.52763 8.5003L8.54481 8.51621C9.17605 9.14241 10.0432 9.52959 10.9999 9.52959C11.9648 9.52959 12.8388 9.13605 13.4714 8.5003C14.1049 7.86455 14.4963 6.98523 14.4963 6.01479C14.4963 5.04436 14.1049 4.16503 13.4725 3.52929L13.4553 3.51338C12.8241 2.88718 11.9569 2.5 10.9999 2.5ZM6.80431 13.1841V20.2121C6.80521 20.2826 6.83075 20.3537 6.8825 20.4089C6.99054 20.5243 7.17157 20.5298 7.28638 20.4214C7.67422 20.0558 8.21709 19.7506 8.86235 19.538C9.49472 19.3294 10.2234 19.2106 10.9999 19.2106C11.7765 19.2106 12.5049 19.3294 13.1378 19.538C13.7753 19.7481 14.313 20.0485 14.7 20.4084C14.7524 20.4648 14.8267 20.5 14.9095 20.5C15.0677 20.5 15.1958 20.3712 15.1958 20.2121V13.1843L19.4685 8.88861C20.0505 8.30353 20.1072 7.6053 19.8656 7.02386L19.8591 7.00659C19.7642 6.78437 19.6247 6.58033 19.4545 6.40947C19.2895 6.2436 19.0927 6.10591 18.8762 6.01025L18.8606 6.00275C18.2845 5.75395 17.5899 5.80394 17.0059 6.37879L12.8103 10.5957H9.18984L5.01182 6.39515C4.42352 5.80485 3.72085 5.75191 3.13956 6.00275C2.91739 6.09909 2.71466 6.23928 2.5456 6.40947C2.3761 6.57965 2.23665 6.78369 2.14105 7.00773C1.89176 7.59235 1.94419 8.29831 2.53159 8.88861L6.80431 13.1841Z" fill="#595959"/>
</g>
</svg>
