<svg width="48" height="48" viewBox="0 0 48 48" fill="none" xmlns="http://www.w3.org/2000/svg">
<g id="Group 15808">
<circle id="Ellipse 3695" cx="23.9999" cy="23.9112" r="23.6612" stroke="black" stroke-width="0.5"/>
<g id="icon">
<path id="Icon" d="M27.7073 33.1121H18.4387C17.8329 33.1121 17.53 33.1121 17.3897 32.9923C17.268 32.8883 17.2034 32.7324 17.216 32.5728C17.2304 32.3889 17.4446 32.1748 17.873 31.7464L26.376 23.2434C26.772 22.8474 26.97 22.6494 27.1983 22.5752C27.3992 22.51 27.6155 22.51 27.8163 22.5752C28.0447 22.6494 28.2427 22.8474 28.6387 23.2434L32.5073 27.1121V28.3121M27.7073 33.1121C29.3875 33.1121 30.2276 33.1121 30.8693 32.7851C31.4338 32.4975 31.8927 32.0385 32.1803 31.474C32.5073 30.8323 32.5073 29.9922 32.5073 28.3121M27.7073 33.1121H19.3073C17.6272 33.1121 16.7871 33.1121 16.1454 32.7851C15.5809 32.4975 15.1219 32.0385 14.8343 31.474C14.5073 30.8323 14.5073 29.9922 14.5073 28.3121V19.9121C14.5073 18.2319 14.5073 17.3918 14.8343 16.7501C15.1219 16.1856 15.5809 15.7267 16.1454 15.439C16.7871 15.1121 17.6272 15.1121 19.3073 15.1121H27.7073C29.3875 15.1121 30.2276 15.1121 30.8693 15.439C31.4338 15.7267 31.8927 16.1856 32.1803 16.7501C32.5073 17.3918 32.5073 18.2319 32.5073 19.9121V28.3121M22.0073 20.6121C22.0073 21.7166 21.1119 22.6121 20.0073 22.6121C18.9028 22.6121 18.0073 21.7166 18.0073 20.6121C18.0073 19.5075 18.9028 18.6121 20.0073 18.6121C21.1119 18.6121 22.0073 19.5075 22.0073 20.6121Z" stroke="black" stroke-linecap="round" stroke-linejoin="round"/>
<g id="Icon_2">
<path d="M17.8731 31.7464L26.376 23.2434C26.772 22.8474 26.97 22.6494 27.1984 22.5752C27.3992 22.51 27.6155 22.51 27.8164 22.5752C28.0447 22.6494 28.2427 22.8474 28.6387 23.2434L32.5074 27.1121V28.3121C32.5074 29.9922 32.5074 30.8323 32.1804 31.474C31.8928 32.0385 31.4338 32.4975 30.8693 32.7851C30.2276 33.1121 29.3875 33.1121 27.7074 33.1121H18.4387C17.8329 33.1121 17.53 33.1121 17.3898 32.9923C17.2681 32.8883 17.2035 32.7324 17.216 32.5728C17.2305 32.3889 17.4447 32.1748 17.8731 31.7464Z" fill="black"/>
<path d="M20.0074 22.6121C21.1119 22.6121 22.0074 21.7166 22.0074 20.6121C22.0074 19.5075 21.1119 18.6121 20.0074 18.6121C18.9028 18.6121 18.0074 19.5075 18.0074 20.6121C18.0074 21.7166 18.9028 22.6121 20.0074 22.6121Z" fill="black"/>
<path d="M27.7074 33.1121H18.4387C17.8329 33.1121 17.53 33.1121 17.3898 32.9923C17.2681 32.8883 17.2035 32.7324 17.216 32.5728C17.2305 32.3889 17.4447 32.1748 17.8731 31.7464L26.376 23.2434C26.772 22.8474 26.97 22.6494 27.1984 22.5752C27.3992 22.51 27.6155 22.51 27.8164 22.5752C28.0447 22.6494 28.2427 22.8474 28.6387 23.2434L32.5074 27.1121V28.3121C32.5074 29.9922 32.5074 30.8323 32.1804 31.474C31.8928 32.0385 31.4338 32.4975 30.8693 32.7851C30.2276 33.1121 29.3875 33.1121 27.7074 33.1121ZM27.7074 33.1121H19.3074M22.0074 20.6121C22.0074 21.7166 21.1119 22.6121 20.0074 22.6121C18.9028 22.6121 18.0074 21.7166 18.0074 20.6121C18.0074 19.5075 18.9028 18.6121 20.0074 18.6121C21.1119 18.6121 22.0074 19.5075 22.0074 20.6121Z" stroke="black" stroke-linecap="round" stroke-linejoin="round"/>
</g>
</g>
</g>
</svg>
