<svg width="23" height="23" viewBox="0 0 23 23" fill="none" xmlns="http://www.w3.org/2000/svg">
<g id="icon">
<g id="Vector">
<path d="M18.6153 19.3642C17.7825 19.2242 16.5564 19.3408 16.0937 19.4108L14.752 11.2899C15.3303 10.8232 15.4923 10.5432 15.446 10.0064C15.3997 9.49305 15.0527 9.073 14.5669 8.95632C14.4975 8.93299 14.4281 8.93299 14.3587 8.93299L14.243 8.18624C14.1968 7.92954 13.9423 7.76619 13.6878 7.81286C13.4334 7.85953 13.2714 8.11623 13.3177 8.37292L13.4796 9.23636C13.4334 9.25969 13.4102 9.28303 13.364 9.3297C13.1095 9.53972 12.323 10.0998 11.7215 10.4965C11.5364 10.2865 11.3513 10.0765 11.1663 9.81975C10.8655 9.44638 10.0559 8.27958 9.33873 7.8362C8.34399 7.22946 7.07164 7.27613 6.33137 7.95288C5.10529 9.09634 3.78668 11.71 3.48594 13.5302C3.39341 14.0669 3.53221 14.627 3.85608 15.0704C4.15681 15.4671 4.57322 15.7238 5.05902 15.8171L4.55008 18.5007H1.77406C1.01065 18.5007 0.40918 19.1308 0.40918 19.8776C0.40918 20.6243 1.03379 21.2544 1.77406 21.2544H5.68363C6.3545 21.2544 6.90971 20.7877 7.02537 20.1343L7.76565 16.2138L10.0096 16.5872L10.6573 20.1343C10.773 20.811 11.3513 21.2777 11.9991 21.2777C12.0916 21.2777 12.161 21.2777 12.2536 21.2544C12.9938 21.1144 13.5028 20.391 13.364 19.6442L12.5774 15.0704C12.4849 14.487 12.0222 14.0436 11.4439 13.9502L8.80666 13.5068L9.82453 11.92C10.1484 12.2934 10.426 12.6201 10.7036 12.8768C10.8424 12.9934 11.12 13.2035 11.5364 13.2035C11.7215 13.2035 11.9528 13.1568 12.2073 13.0401C12.6006 12.8534 13.3408 12.34 13.896 11.9433C13.9423 11.92 13.9886 11.8733 14.0348 11.85L15.5848 20.4143C15.6542 20.7177 15.8624 20.8577 16.2557 20.9277C16.7183 21.021 17.3429 21.1377 17.7131 21.2077C18.4302 21.3477 19.4018 19.4809 18.6153 19.3642Z" fill="#595959"/>
<path d="M21.345 19.0841C20.7667 19.0841 20.2809 19.5509 20.2809 20.1576C20.2809 20.741 20.7436 21.2311 21.345 21.2311C21.9234 21.2311 22.4092 20.7643 22.4092 20.1576C22.4092 19.5742 21.9465 19.0841 21.345 19.0841Z" fill="#595959"/>
<path d="M10.1484 7.13612C11.6289 7.13612 12.8088 5.89931 12.8088 4.40581C12.7856 2.9123 11.5827 1.72217 10.1021 1.72217C8.62159 1.7455 7.44178 2.95898 7.44178 4.45248C7.44178 5.94598 8.66785 7.15945 10.1484 7.13612Z" fill="#595959"/>
</g>
</g>
</svg>
