<svg width="23" height="22" viewBox="0 0 23 22" fill="none" xmlns="http://www.w3.org/2000/svg">
<g id="Layer_1" clip-path="url(#clip0_5149_410)">
<path id="Vector" fill-rule="evenodd" clip-rule="evenodd" d="M20.0618 2.46413C16.7942 -0.793622 11.4775 -0.774693 8.18613 2.50688C8.04316 2.64977 7.9063 2.79632 7.77555 2.94654L7.76028 2.93127L0.652134 10.1026L5.16422 10.3572L0.5 21.9667L12.1447 17.4016L12.4001 21.8152L19.2638 14.9724C19.5253 14.7667 19.7776 14.5444 20.019 14.3038C23.3103 11.0222 23.3293 5.72188 20.0618 2.46413Z" fill="#595959"/>
<path id="Vector_2" d="M14.2143 14.4378C10.7484 14.4378 7.95801 11.618 7.95801 8.18147C7.95801 4.74488 10.7778 1.89575 14.2143 1.89575C17.6509 1.89575 20.4707 4.71551 20.4707 8.15209C20.4707 11.5887 17.6509 14.4084 14.2143 14.4084V14.4378Z" fill="white"/>
<path id="Vector_3" d="M10.9539 6.68349C10.6895 6.50725 10.6308 6.18416 10.807 5.9198C11.5707 4.7449 12.8631 4.06934 14.2436 4.06934C14.5373 4.06934 14.7723 4.30432 14.7723 4.59804C14.7723 4.89177 14.5373 5.12675 14.2436 5.12675C13.2156 5.12675 12.2757 5.62608 11.7176 6.50725C11.5413 6.77161 11.2183 6.83035 10.9539 6.65412V6.68349Z" fill="#595959"/>
<path id="Vector_4" d="M17.4159 10.443C17.2103 10.2374 17.2103 9.88496 17.4159 9.67935C17.6215 9.47374 17.974 9.47374 18.1796 9.67935C18.3852 9.88496 18.3852 10.2374 18.1796 10.443C17.974 10.6486 17.6215 10.6486 17.4159 10.443Z" fill="#595959"/>
<path id="Vector_5" d="M17.0928 7.50593C17.0928 7.0066 17.7096 6.80099 18.0327 7.12409C18.2383 7.3297 18.2383 7.68217 18.0327 7.88777C17.6802 8.24024 17.0928 7.97589 17.0928 7.50593Z" fill="#595959"/>
<path id="Vector_6" d="M12.4519 10.8837C12.4519 10.1787 13.5387 10.1787 13.5387 10.8837C13.5387 11.0305 13.4799 11.1774 13.3918 11.2655C13.0687 11.5886 12.4519 11.383 12.4519 10.8837Z" fill="#595959"/>
<path id="Vector_7" d="M15.0368 12.1468C14.8312 11.9412 14.8312 11.5887 15.0368 11.3831C15.3599 11.06 15.9767 11.2656 15.9767 11.765C15.9767 12.2349 15.3892 12.4993 15.0368 12.1468Z" fill="#595959"/>
<path id="Vector_8" d="M15.1248 9.56191C15.1248 8.85697 16.2115 8.85697 16.2115 9.56191C16.2115 9.70877 16.1528 9.85563 16.0647 9.94375C15.7122 10.2962 15.1248 10.0319 15.1248 9.56191Z" fill="#595959"/>
</g>
<defs>
<clipPath id="clip0_5149_410">
<rect width="23" height="22" fill="white"/>
</clipPath>
</defs>
</svg>
