<svg width="22" height="23" viewBox="0 0 22 23" fill="none" xmlns="http://www.w3.org/2000/svg">
<g id="icon">
<path id="Vector" d="M7.87065 9.43217L7.87068 9.43221C8.00058 9.6029 7.96221 9.85282 7.79016 9.97913L7.78943 9.97967L7.13322 10.4554L12.3405 17.2926L17.3508 12.9198L17.3591 12.9126L17.3593 12.9129C17.826 12.5623 18.3883 12.4154 18.9538 12.4877C19.5214 12.5601 20.0272 12.8444 20.3766 13.2888L21.2062 14.3439C21.5684 14.8042 21.7195 15.3967 21.6201 15.9697L21.6201 15.9698C21.5195 16.5483 21.1872 17.0449 20.6871 17.3668L20.6059 17.2407L20.687 17.3668L17.0281 19.7216L16.9469 19.5954L17.028 19.7216C16.6097 19.9907 16.1478 20.1526 15.6782 20.2134C14.5605 20.3581 13.3949 19.93 12.6668 19.0039L12.6653 19.0021L12.6654 19.0021L6.5037 10.9117L5.88559 11.3598L5.88558 11.3598C5.83162 11.3989 5.76908 11.4233 5.70427 11.4317C5.66893 11.4362 5.63264 11.4362 5.59648 11.431M7.87065 9.43217L5.45886 11.1899L5.33937 11.2806C5.3394 11.2806 5.33943 11.2807 5.33945 11.2807C5.40194 11.363 5.49492 11.4164 5.59648 11.431M7.87065 9.43217L3.07398 3.13399C3.07398 3.13399 3.07398 3.13399 3.07398 3.13398C2.92184 2.93422 2.69882 2.80501 2.4479 2.76913L2.44781 2.76912M7.87065 9.43217L2.44781 2.76912M5.59648 11.431L5.61788 11.2825L5.59672 11.431C5.59664 11.431 5.59656 11.431 5.59648 11.431ZM2.44781 2.76912C2.19645 2.73333 1.94561 2.79492 1.74165 2.94273L1.74163 2.94274M2.44781 2.76912L1.74163 2.94274M1.74163 2.94274L0.735034 3.6725M1.74163 2.94274L0.735034 3.6725M0.735034 3.6725C0.735024 3.67251 0.735013 3.67251 0.735003 3.67252L0.735034 3.6725ZM14.3092 12.2922L14.3092 12.2922L14.3118 12.2919L14.2926 12.1431L14.3118 12.2919C15.3978 12.1512 16.3642 11.6089 17.0309 10.7636C17.165 10.5936 17.1302 10.3504 16.9573 10.2223C16.7871 10.0962 16.5437 10.1265 16.4118 10.2937C15.8731 10.9767 15.0918 11.4163 14.2094 11.5305L14.2094 11.5305L14.2074 11.5308C13.324 11.6446 12.4485 11.4184 11.7413 10.8944L11.7413 10.8944C11.5711 10.7683 11.3278 10.7987 11.1959 10.9659C11.0618 11.1359 11.0966 11.3791 11.2696 11.5072C12.1422 12.1537 13.2221 12.4324 14.3092 12.2922ZM14.018 10.7319C15.5008 10.5399 16.5536 9.21085 16.354 7.76144C16.1545 6.31318 14.7808 5.2997 13.2988 5.49159C11.816 5.68359 10.7632 7.01266 10.9628 8.46196C11.1623 9.91032 12.536 10.9238 14.018 10.7319ZM13.4012 6.25292C14.464 6.11529 15.4376 6.84291 15.5782 7.86433C15.7188 8.88473 14.9776 9.83308 13.9156 9.97059C12.8528 10.1082 11.8792 9.3805 11.7385 8.35906C11.598 7.33867 12.3391 6.39043 13.4012 6.25292Z" fill="#595959" stroke="#595959" stroke-width="0.3"/>
<path id="Vector_2" d="M15.5086 18.5691L15.5087 18.5692L16.0533 18.646L19.6091 16.068L19.521 15.9465C19.6279 15.8691 19.6498 15.7225 19.5699 15.619C19.49 15.5155 19.3389 15.4942 19.2321 15.5718L19.144 15.4504L19.1439 15.4504L15.5881 18.0285L15.5881 18.0285C15.414 18.1547 15.3761 18.3974 15.5086 18.5691ZM15.2253 17.5593L15.2254 17.5592L18.7814 14.9812L18.7814 14.9812C18.9555 14.855 18.9934 14.6123 18.8609 14.4406L18.8607 14.4404C18.7304 14.2722 18.488 14.2393 18.3164 14.3636L18.3163 14.3636L14.7604 16.9416L14.7604 16.9416C14.5862 17.0679 14.5483 17.3106 14.6808 17.4822L14.6809 17.4824C14.7699 17.5974 14.9109 17.6483 15.0443 17.6311C15.1078 17.6228 15.1702 17.5991 15.2253 17.5593ZM18.7422 14.5323C18.662 14.4289 18.5112 14.4077 18.4043 14.4851L18.6933 14.8598C18.8001 14.7823 18.8221 14.6358 18.7422 14.5323Z" fill="white" stroke="#595959" stroke-width="0.3"/>
</g>
</svg>
