<svg width="23" height="23" viewBox="0 0 23 23" fill="none" xmlns="http://www.w3.org/2000/svg">
<g id="icon" clip-path="url(#clip0_5161_807)">
<path id="Subtract" fill-rule="evenodd" clip-rule="evenodd" d="M1.07793 6.22744C0.933489 6.41232 0.829487 6.61743 0.777491 6.85143C0.673494 7.2732 0.739937 7.70072 0.971045 8.07049L5.09053 14.7784C6.10452 16.4337 7.87247 17.4188 9.78782 17.4188C9.94959 17.4188 10.1143 17.4101 10.276 17.3957L18.5005 16.6792C19.7803 16.5695 20.9704 15.9253 21.7533 14.9113C22.5449 13.8973 22.8771 12.5887 22.6691 11.3233L22.1809 8.29872C22.0104 7.25581 21.346 6.3603 20.3898 5.90385C19.4364 5.44453 18.3127 5.4763 17.3883 5.9934L8.21939 11.1558C7.56074 11.5256 6.7403 11.3118 6.34746 10.6676L3.71572 6.38628C3.35461 5.79406 2.67281 5.5196 2.03155 5.6554L1.07793 6.22744ZM16.9235 9.68831L19.7546 9.42253L19.7575 9.42254C20.0608 9.39366 20.289 9.12788 20.2601 8.81589C20.2313 8.51255 19.9568 8.29011 19.6535 8.319L16.8282 8.57899C16.5191 8.60788 16.2967 8.88232 16.3255 9.18565C16.3458 9.47454 16.5913 9.68831 16.8715 9.68831H16.9235ZM13.0467 12.3662L19.1566 11.7971C19.4599 11.7682 19.6881 11.4938 19.6593 11.1905C19.6304 10.8872 19.3559 10.6647 19.0526 10.6936L12.9427 11.2569C12.6394 11.2858 12.4112 11.5602 12.4401 11.8636C12.4689 12.1525 12.7058 12.3662 12.9947 12.3662H13.0467ZM9.65249 13.9435C9.34916 13.9637 9.12094 14.2382 9.14983 14.5415L9.14982 14.5444C9.17871 14.8333 9.4156 15.0471 9.70448 15.0471H9.75648L18.5504 14.2324C18.8537 14.2035 19.082 13.9291 19.0531 13.6257C19.0242 13.3224 18.7497 13.1 18.4464 13.1231L9.65249 13.9435Z" fill="#595959"/>
</g>
<defs>
<clipPath id="clip0_5161_807">
<rect width="22.001" height="22" fill="white" transform="translate(0.72876 0.5)"/>
</clipPath>
</defs>
</svg>
